<svg width="54" height="101" viewBox="0 0 54 101" fill="none" xmlns="http://www.w3.org/2000/svg">
<path d="M41 11.5L46.5 21.62L39 20.5L35 21.62L26.5 24L19.5 27.5L12 33.5L10 35L7.5 22L19.5 27.5V14.5L26.5 24L39 17L41 11.5Z" fill="#D9C93D"/>
<path d="M9 43.5C6.09251 37.2943 11.5177 30.8758 23.3746 25.3206C35.2316 19.7653 46.5925 17.2943 49.5 23.5C46.0216 21.3956 36.843 22.5321 24.9861 28.0873C13.1292 33.6425 13.1182 33.8284 9 43.5Z" fill="#C9BA32"/>
<path d="M12 49.995L32.2025 0L54 49.995L32.2025 101L12 49.995Z" fill="#1B6941"/>
<path d="M12 49.9074L32 0L25.6842 55L12 49.9074Z" fill="#32B471"/>
<path d="M32 0L54 50L37.5 55L32 0Z" fill="#39AE72"/>
<path d="M37.5 55H25.5L32 0L37.5 55Z" fill="#45D58B"/>
<path d="M32 100.5L12 50L26.0541 55L32 100.5Z" fill="#1C7246"/>
<path d="M37.5 55H25.5L32.2174 101L37.5 55Z" fill="#1A5738"/>
<path d="M37.5 55L54 50L32 101L37.5 55Z" fill="#206C45"/>
<path d="M8.5 43.5L0 23L22.5 45V25L36 39.5V14L47 27.5V32L41.5 37L36 39.5L30 42L25.5 43.5L22.5 45H19H15.5H10.5L8.5 43.5Z" fill="#F2E03E"/>
<path d="M49 23C51.6581 29.3165 45.5687 36.75 33.5 41.8287C21.4313 46.9074 10.6581 48.1452 8 41.8287C11.3919 44.0699 19.9313 44.0787 32 39C44.0687 33.9213 44.5 32.5 49 23Z" fill="#D6C635"/>
</svg>
